<mxfile host="app.diagrams.net" modified="2023-11-21T22:59:48.150Z" agent="Mozilla/5.0 (Windows NT 10.0; Win64; x64) AppleWebKit/537.36 (KHTML, like Gecko) Chrome/119.0.0.0 Safari/537.36" etag="USXL--voRJLreChPwXHq" version="22.1.3" type="github">
  <diagram name="Page-1" id="N6Al-tnPbuuCqfEhSpLr">
    <mxGraphModel dx="993" dy="515" grid="1" gridSize="10" guides="1" tooltips="1" connect="1" arrows="1" fold="1" page="1" pageScale="1" pageWidth="850" pageHeight="1100" math="0" shadow="0">
      <root>
        <mxCell id="0" />
        <mxCell id="1" parent="0" />
        <mxCell id="dOHfjajs9Sj8GZZzcKHE-3" style="edgeStyle=orthogonalEdgeStyle;rounded=0;orthogonalLoop=1;jettySize=auto;html=1;" edge="1" parent="1" source="dOHfjajs9Sj8GZZzcKHE-1" target="dOHfjajs9Sj8GZZzcKHE-2">
          <mxGeometry relative="1" as="geometry" />
        </mxCell>
        <mxCell id="dOHfjajs9Sj8GZZzcKHE-1" value="Node A" style="ellipse;whiteSpace=wrap;html=1;aspect=fixed;" vertex="1" parent="1">
          <mxGeometry x="30" y="625" width="80" height="80" as="geometry" />
        </mxCell>
        <mxCell id="dOHfjajs9Sj8GZZzcKHE-7" style="edgeStyle=orthogonalEdgeStyle;rounded=0;orthogonalLoop=1;jettySize=auto;html=1;entryX=0.5;entryY=1;entryDx=0;entryDy=0;" edge="1" parent="1" source="dOHfjajs9Sj8GZZzcKHE-2" target="dOHfjajs9Sj8GZZzcKHE-4">
          <mxGeometry relative="1" as="geometry" />
        </mxCell>
        <mxCell id="dOHfjajs9Sj8GZZzcKHE-9" style="edgeStyle=orthogonalEdgeStyle;rounded=0;orthogonalLoop=1;jettySize=auto;html=1;entryX=0.5;entryY=0;entryDx=0;entryDy=0;" edge="1" parent="1" source="dOHfjajs9Sj8GZZzcKHE-2" target="dOHfjajs9Sj8GZZzcKHE-8">
          <mxGeometry relative="1" as="geometry" />
        </mxCell>
        <mxCell id="dOHfjajs9Sj8GZZzcKHE-2" value="transaction" style="rounded=1;whiteSpace=wrap;html=1;" vertex="1" parent="1">
          <mxGeometry x="165" y="635" width="120" height="60" as="geometry" />
        </mxCell>
        <mxCell id="dOHfjajs9Sj8GZZzcKHE-11" value="" style="edgeStyle=orthogonalEdgeStyle;rounded=0;orthogonalLoop=1;jettySize=auto;html=1;" edge="1" parent="1" source="dOHfjajs9Sj8GZZzcKHE-4" target="dOHfjajs9Sj8GZZzcKHE-10">
          <mxGeometry relative="1" as="geometry" />
        </mxCell>
        <mxCell id="dOHfjajs9Sj8GZZzcKHE-4" value="Node B" style="ellipse;whiteSpace=wrap;html=1;aspect=fixed;" vertex="1" parent="1">
          <mxGeometry x="185" y="495" width="80" height="80" as="geometry" />
        </mxCell>
        <mxCell id="dOHfjajs9Sj8GZZzcKHE-16" value="" style="edgeStyle=orthogonalEdgeStyle;rounded=0;orthogonalLoop=1;jettySize=auto;html=1;" edge="1" parent="1" source="dOHfjajs9Sj8GZZzcKHE-5" target="dOHfjajs9Sj8GZZzcKHE-14">
          <mxGeometry relative="1" as="geometry" />
        </mxCell>
        <mxCell id="dOHfjajs9Sj8GZZzcKHE-5" value="mempool" style="shape=cylinder3;whiteSpace=wrap;html=1;boundedLbl=1;backgroundOutline=1;size=15;" vertex="1" parent="1">
          <mxGeometry x="350" y="625" width="60" height="80" as="geometry" />
        </mxCell>
        <mxCell id="dOHfjajs9Sj8GZZzcKHE-6" style="edgeStyle=orthogonalEdgeStyle;rounded=0;orthogonalLoop=1;jettySize=auto;html=1;entryX=0;entryY=0.5;entryDx=0;entryDy=0;entryPerimeter=0;" edge="1" parent="1" source="dOHfjajs9Sj8GZZzcKHE-2" target="dOHfjajs9Sj8GZZzcKHE-5">
          <mxGeometry relative="1" as="geometry" />
        </mxCell>
        <mxCell id="dOHfjajs9Sj8GZZzcKHE-13" value="" style="edgeStyle=orthogonalEdgeStyle;rounded=0;orthogonalLoop=1;jettySize=auto;html=1;" edge="1" parent="1" source="dOHfjajs9Sj8GZZzcKHE-8" target="dOHfjajs9Sj8GZZzcKHE-12">
          <mxGeometry relative="1" as="geometry" />
        </mxCell>
        <mxCell id="dOHfjajs9Sj8GZZzcKHE-8" value="Node C" style="ellipse;whiteSpace=wrap;html=1;aspect=fixed;" vertex="1" parent="1">
          <mxGeometry x="185" y="765" width="80" height="80" as="geometry" />
        </mxCell>
        <mxCell id="dOHfjajs9Sj8GZZzcKHE-15" style="edgeStyle=orthogonalEdgeStyle;rounded=0;orthogonalLoop=1;jettySize=auto;html=1;" edge="1" parent="1" source="dOHfjajs9Sj8GZZzcKHE-10" target="dOHfjajs9Sj8GZZzcKHE-14">
          <mxGeometry relative="1" as="geometry" />
        </mxCell>
        <mxCell id="dOHfjajs9Sj8GZZzcKHE-10" value="mempool" style="shape=cylinder3;whiteSpace=wrap;html=1;boundedLbl=1;backgroundOutline=1;size=15;" vertex="1" parent="1">
          <mxGeometry x="195" y="365" width="60" height="80" as="geometry" />
        </mxCell>
        <mxCell id="dOHfjajs9Sj8GZZzcKHE-17" style="edgeStyle=orthogonalEdgeStyle;rounded=0;orthogonalLoop=1;jettySize=auto;html=1;entryX=0.5;entryY=1;entryDx=0;entryDy=0;" edge="1" parent="1" source="dOHfjajs9Sj8GZZzcKHE-12" target="dOHfjajs9Sj8GZZzcKHE-14">
          <mxGeometry relative="1" as="geometry" />
        </mxCell>
        <mxCell id="dOHfjajs9Sj8GZZzcKHE-12" value="mempool" style="shape=cylinder3;whiteSpace=wrap;html=1;boundedLbl=1;backgroundOutline=1;size=15;" vertex="1" parent="1">
          <mxGeometry x="195" y="885" width="60" height="80" as="geometry" />
        </mxCell>
        <mxCell id="dOHfjajs9Sj8GZZzcKHE-19" value="" style="edgeStyle=orthogonalEdgeStyle;rounded=0;orthogonalLoop=1;jettySize=auto;html=1;" edge="1" parent="1" source="dOHfjajs9Sj8GZZzcKHE-14" target="dOHfjajs9Sj8GZZzcKHE-18">
          <mxGeometry relative="1" as="geometry" />
        </mxCell>
        <mxCell id="dOHfjajs9Sj8GZZzcKHE-14" value="&lt;div&gt;Transaction Balloting&lt;/div&gt;" style="whiteSpace=wrap;html=1;aspect=fixed;" vertex="1" parent="1">
          <mxGeometry x="480" y="625" width="80" height="80" as="geometry" />
        </mxCell>
        <mxCell id="dOHfjajs9Sj8GZZzcKHE-27" style="edgeStyle=orthogonalEdgeStyle;rounded=0;orthogonalLoop=1;jettySize=auto;html=1;entryX=0.5;entryY=1;entryDx=0;entryDy=0;" edge="1" parent="1" source="dOHfjajs9Sj8GZZzcKHE-18" target="dOHfjajs9Sj8GZZzcKHE-20">
          <mxGeometry relative="1" as="geometry" />
        </mxCell>
        <mxCell id="dOHfjajs9Sj8GZZzcKHE-28" style="edgeStyle=orthogonalEdgeStyle;rounded=0;orthogonalLoop=1;jettySize=auto;html=1;entryX=0.5;entryY=1;entryDx=0;entryDy=0;" edge="1" parent="1" source="dOHfjajs9Sj8GZZzcKHE-18" target="dOHfjajs9Sj8GZZzcKHE-22">
          <mxGeometry relative="1" as="geometry" />
        </mxCell>
        <mxCell id="dOHfjajs9Sj8GZZzcKHE-29" style="edgeStyle=orthogonalEdgeStyle;rounded=0;orthogonalLoop=1;jettySize=auto;html=1;entryX=0.5;entryY=1;entryDx=0;entryDy=0;" edge="1" parent="1" source="dOHfjajs9Sj8GZZzcKHE-18" target="dOHfjajs9Sj8GZZzcKHE-21">
          <mxGeometry relative="1" as="geometry" />
        </mxCell>
        <mxCell id="dOHfjajs9Sj8GZZzcKHE-18" value="Unified Transaction&lt;br&gt;List" style="whiteSpace=wrap;html=1;" vertex="1" parent="1">
          <mxGeometry x="620" y="635" width="120" height="60" as="geometry" />
        </mxCell>
        <mxCell id="dOHfjajs9Sj8GZZzcKHE-31" value="" style="edgeStyle=orthogonalEdgeStyle;rounded=0;orthogonalLoop=1;jettySize=auto;html=1;" edge="1" parent="1" source="dOHfjajs9Sj8GZZzcKHE-20" target="dOHfjajs9Sj8GZZzcKHE-30">
          <mxGeometry relative="1" as="geometry" />
        </mxCell>
        <mxCell id="dOHfjajs9Sj8GZZzcKHE-20" value="Node A" style="ellipse;whiteSpace=wrap;html=1;aspect=fixed;" vertex="1" parent="1">
          <mxGeometry x="550" y="485" width="80" height="80" as="geometry" />
        </mxCell>
        <mxCell id="dOHfjajs9Sj8GZZzcKHE-35" value="" style="edgeStyle=orthogonalEdgeStyle;rounded=0;orthogonalLoop=1;jettySize=auto;html=1;" edge="1" parent="1" source="dOHfjajs9Sj8GZZzcKHE-21" target="dOHfjajs9Sj8GZZzcKHE-34">
          <mxGeometry relative="1" as="geometry" />
        </mxCell>
        <mxCell id="dOHfjajs9Sj8GZZzcKHE-21" value="Node C" style="ellipse;whiteSpace=wrap;html=1;aspect=fixed;" vertex="1" parent="1">
          <mxGeometry x="730" y="485" width="80" height="80" as="geometry" />
        </mxCell>
        <mxCell id="dOHfjajs9Sj8GZZzcKHE-33" value="" style="edgeStyle=orthogonalEdgeStyle;rounded=0;orthogonalLoop=1;jettySize=auto;html=1;" edge="1" parent="1" source="dOHfjajs9Sj8GZZzcKHE-22" target="dOHfjajs9Sj8GZZzcKHE-32">
          <mxGeometry relative="1" as="geometry" />
        </mxCell>
        <mxCell id="dOHfjajs9Sj8GZZzcKHE-22" value="Node B" style="ellipse;whiteSpace=wrap;html=1;aspect=fixed;" vertex="1" parent="1">
          <mxGeometry x="640" y="485" width="80" height="80" as="geometry" />
        </mxCell>
        <mxCell id="dOHfjajs9Sj8GZZzcKHE-40" style="edgeStyle=orthogonalEdgeStyle;rounded=0;orthogonalLoop=1;jettySize=auto;html=1;entryX=0;entryY=0.5;entryDx=0;entryDy=0;" edge="1" parent="1" source="dOHfjajs9Sj8GZZzcKHE-30" target="dOHfjajs9Sj8GZZzcKHE-36">
          <mxGeometry relative="1" as="geometry" />
        </mxCell>
        <mxCell id="dOHfjajs9Sj8GZZzcKHE-30" value="Block&lt;br&gt;Formation" style="whiteSpace=wrap;html=1;aspect=fixed;" vertex="1" parent="1">
          <mxGeometry x="550" y="365" width="80" height="80" as="geometry" />
        </mxCell>
        <mxCell id="dOHfjajs9Sj8GZZzcKHE-41" value="" style="edgeStyle=orthogonalEdgeStyle;rounded=0;orthogonalLoop=1;jettySize=auto;html=1;" edge="1" parent="1" source="dOHfjajs9Sj8GZZzcKHE-32" target="dOHfjajs9Sj8GZZzcKHE-36">
          <mxGeometry relative="1" as="geometry" />
        </mxCell>
        <mxCell id="dOHfjajs9Sj8GZZzcKHE-32" value="Block&lt;br style=&quot;border-color: var(--border-color);&quot;&gt;Formation" style="whiteSpace=wrap;html=1;aspect=fixed;" vertex="1" parent="1">
          <mxGeometry x="640" y="365" width="80" height="80" as="geometry" />
        </mxCell>
        <mxCell id="dOHfjajs9Sj8GZZzcKHE-42" style="edgeStyle=orthogonalEdgeStyle;rounded=0;orthogonalLoop=1;jettySize=auto;html=1;entryX=1;entryY=0.5;entryDx=0;entryDy=0;" edge="1" parent="1" source="dOHfjajs9Sj8GZZzcKHE-34" target="dOHfjajs9Sj8GZZzcKHE-36">
          <mxGeometry relative="1" as="geometry" />
        </mxCell>
        <mxCell id="dOHfjajs9Sj8GZZzcKHE-34" value="Block&lt;br style=&quot;border-color: var(--border-color);&quot;&gt;Formation" style="whiteSpace=wrap;html=1;aspect=fixed;" vertex="1" parent="1">
          <mxGeometry x="730" y="365" width="80" height="80" as="geometry" />
        </mxCell>
        <mxCell id="dOHfjajs9Sj8GZZzcKHE-46" value="" style="edgeStyle=orthogonalEdgeStyle;rounded=0;orthogonalLoop=1;jettySize=auto;html=1;" edge="1" parent="1" source="dOHfjajs9Sj8GZZzcKHE-36" target="dOHfjajs9Sj8GZZzcKHE-45">
          <mxGeometry relative="1" as="geometry" />
        </mxCell>
        <mxCell id="dOHfjajs9Sj8GZZzcKHE-36" value="Hash Validation" style="whiteSpace=wrap;html=1;" vertex="1" parent="1">
          <mxGeometry x="620" y="255" width="120" height="60" as="geometry" />
        </mxCell>
        <mxCell id="dOHfjajs9Sj8GZZzcKHE-43" value="Block&lt;br&gt;Hash" style="text;html=1;strokeColor=none;fillColor=none;align=center;verticalAlign=middle;whiteSpace=wrap;rounded=0;" vertex="1" parent="1">
          <mxGeometry x="770" y="325" width="60" height="30" as="geometry" />
        </mxCell>
        <mxCell id="dOHfjajs9Sj8GZZzcKHE-44" value="Block&lt;br&gt;Hash" style="text;html=1;strokeColor=none;fillColor=none;align=center;verticalAlign=middle;whiteSpace=wrap;rounded=0;" vertex="1" parent="1">
          <mxGeometry x="530" y="325" width="60" height="30" as="geometry" />
        </mxCell>
        <mxCell id="dOHfjajs9Sj8GZZzcKHE-48" value="" style="edgeStyle=orthogonalEdgeStyle;rounded=0;orthogonalLoop=1;jettySize=auto;html=1;" edge="1" parent="1" source="dOHfjajs9Sj8GZZzcKHE-45" target="dOHfjajs9Sj8GZZzcKHE-47">
          <mxGeometry relative="1" as="geometry" />
        </mxCell>
        <mxCell id="dOHfjajs9Sj8GZZzcKHE-45" value="New&lt;br&gt;Block" style="whiteSpace=wrap;html=1;aspect=fixed;" vertex="1" parent="1">
          <mxGeometry x="640" y="135" width="80" height="80" as="geometry" />
        </mxCell>
        <mxCell id="dOHfjajs9Sj8GZZzcKHE-47" value="CHAIN" style="rounded=0;whiteSpace=wrap;html=1;" vertex="1" parent="1">
          <mxGeometry x="30" y="132.5" width="500" height="85" as="geometry" />
        </mxCell>
      </root>
    </mxGraphModel>
  </diagram>
</mxfile>
